<?xml version="1.0" encoding="utf-8"?>
<!-- Generator: Adobe Illustrator 25.3.1, SVG Export Plug-In . SVG Version: 6.00 Build 0)  -->
<svg version="1.1" id="Layer_1" xmlns="http://www.w3.org/2000/svg" xmlns:xlink="http://www.w3.org/1999/xlink" x="0px" y="0px"
	 viewBox="0 0 24 24" style="enable-background:new 0 0 24 24;" xml:space="preserve">
<style type="text/css">
	.st0{fill:none;}
</style>
<g>
	<path d="M8.3,23.9C8.3,23.9,8.3,23.9,8.3,23.9C8.3,23.9,8.3,23.9,8.3,23.9C8.3,23.9,8.3,23.9,8.3,23.9z"/>
	<path d="M8.9,23.9L8.9,23.9C8.9,23.9,8.9,23.9,8.9,23.9C8.9,23.9,8.9,23.9,8.9,23.9z"/>
	<path d="M10.5,0.1C10.5,0.1,10.5,0.1,10.5,0.1C10.5,0.2,10.5,0.2,10.5,0.1C10.5,0.2,10.5,0.2,10.5,0.1C10.5,0.1,10.5,0.1,10.5,0.1z
		"/>
	<path d="M19.7,14.1L19.7,14.1z"/>
	<path d="M19.7,13.3L19.7,13.3z"/>
	<path d="M19.7,12.5L19.7,12.5z"/>
	<path d="M19.8,2.4c-0.1-0.3,0-0.6-0.1-0.8c0,0,0,0,0,0v0c0-0.6-0.3-1-0.8-1.3c-0.3-0.1-0.6-0.1-0.8-0.2h-6.8
		c-0.3,0.2-0.5,0.2-0.8,0.1c0,0,0,0,0,0C9.5,0.3,9,1,9,2.1c0,1.4,0,2.8,0,4.3c0,1.9,0,3.8,0,5.7c0,0.4,0.1,0.4,0.4,0.5
		c0.4,0,0.4-0.2,0.4-0.5c0-3,0-6,0-9.1c0-0.3-0.1-0.5,0.4-0.5c2.7,0,5.5,0,8.2,0c0.3,0,0.4,0.1,0.4,0.4c0,4.2,0,8.3,0,12.5
		c0,0.4-0.1,0.5-0.5,0.5c-0.8,0-1.7,0-2.5,0c-0.3,0-0.4,0.1-0.4,0.5c0,0.4,0.1,0.4,0.5,0.4c1,0,1.9,0,2.9,0
		c-0.1,0.5-0.4,0.6-0.8,0.6c-0.6,0-1.2,0-1.8,0c-0.5,0-0.3,0.3-0.4,0.5c-0.1,0.3,0.1,0.4,0.3,0.4c0.6,0,1.2,0,1.8,0
		c1.1,0,1.5-0.4,1.8-1.5v0c0-0.5-0.1-1.1,0.1-1.6V2.4z M10.9,1C13.3,0.9,15.7,1,18,1c0.1,0,0.2,0,0.3,0c0.2,0.1,0.4,0.1,0.4,0.4H10
		C10.2,1,10.6,1,10.9,1z"/>
	<path d="M11.4,0.1c-0.3,0.2-0.5,0.2-0.8,0.1c0,0,0,0,0,0c0,0,0,0,0.1,0C10.8,0.1,11.1,0.2,11.4,0.1z"/>
	<path class="st0" d="M19.7,11.6v2.5"/>
	<path class="st0" d="M19.7,8.9c0-1.4,0-2.9,0-4.3"/>
	<path class="st0" d="M19.7,10.9c0-0.7,0-1.3,0-2"/>
	<path d="M19.7,12.5L19.7,12.5z"/>
	<path d="M19.7,11.6L19.7,11.6z"/>
	<path d="M19.7,13.3L19.7,13.3z"/>
	<path d="M19.7,12.5L19.7,12.5z"/>
	<path d="M19.7,14.1L19.7,14.1z"/>
	<path d="M11.4,0.1c-0.3,0.2-0.5,0.2-0.8,0.1c0,0,0,0,0,0c0,0,0,0,0.1,0c0,0,0.1,0,0.1,0L11.4,0.1z"/>
	<path d="M19.8,3.8L19.8,3.8z"/>
	<path d="M19.7,4.5L19.7,4.5z"/>
	<line class="st0" x1="19.7" y1="11.6" x2="19.7" y2="10.8"/>
	<path d="M19.7,14.1L19.7,14.1z"/>
	<path d="M19.7,13.3L19.7,13.3z"/>
	<path d="M8.3,23.9C8.3,23.9,8.3,23.9,8.3,23.9C8.3,23.9,8.3,23.9,8.3,23.9C8.3,23.9,8.3,23.9,8.3,23.9z"/>
	<path d="M8.9,23.9L8.9,23.9C8.9,23.9,8.9,23.9,8.9,23.9C8.9,23.9,8.9,23.9,8.9,23.9z"/>
	<path d="M8.9,23.9C8.9,23.9,8.9,23.9,8.9,23.9L8.9,23.9C8.9,23.9,8.9,23.9,8.9,23.9z M8.3,23.9C8.3,23.9,8.3,23.9,8.3,23.9
		C8.3,23.9,8.3,23.9,8.3,23.9C8.3,23.9,8.3,23.9,8.3,23.9z"/>
	<path d="M15,17.4c-0.2-0.2-0.3-0.3-0.2-0.6c0.2-0.6,0.1-1.2-0.5-1.7c-0.1-0.1-0.3-0.1-0.2-0.3c0.2-0.8-0.2-1.2-0.7-1.7
		c0.4-0.4,0.8-0.8,1.2-1.2c0.5-0.6,0.6-1.3,0.1-1.8c-0.5-0.6-1.3-0.6-1.9-0.1c-0.1,0.1-0.3,0.2-0.4,0.4c-1.7,1.7-3.4,3.4-5.1,5.2
		c-0.1,0.1-0.2,0.3-0.4,0.3v-1.7c0-0.9-0.6-1.6-1.4-1.6c-0.8,0-1.3,0.6-1.3,1.6c0,1.6,0.1,3.3,0,5c-0.2,2.7,1.8,4.5,4.1,4.8
		c0,0,0,0,0,0s0,0,0,0h0.6c0,0,0,0,0,0c0,0,0,0,0,0c0.6,0,1.3-0.2,1.8-0.5c1.8-1.2,3.2-2.7,4.6-4.3C15.7,18.6,15.6,17.9,15,17.4z
		 M7,22.6c-1.3-0.7-2-1.7-1.9-3.2c0-0.8,0-1.6,0-2.3v-2.9c0-0.3,0-0.7,0.5-0.7C6,13.5,6,13.8,6,14.1c0,0.9,0,1.8,0,2.7
		c0,0.2-0.1,0.5,0.2,0.6c0.3,0.1,0.5-0.1,0.6-0.3c2-2,4-4,5.9-5.9c0.1-0.1,0.3-0.3,0.4-0.4c0.2-0.2,0.5-0.5,0.8-0.2
		c0.3,0.3,0,0.6-0.2,0.8c-1.4,1.4-2.8,2.8-4.1,4.2c-0.1,0.1-0.2,0.2-0.3,0.3c-0.2,0.2-0.2,0.4,0,0.7c0.2,0.2,0.4,0.1,0.6,0
		c0.8-0.8,1.6-1.5,2.3-2.3c0.2-0.2,0.4-0.5,0.8-0.2c0.3,0.3,0.1,0.6-0.1,0.8c-0.7,0.7-1.4,1.4-2.1,2.1c-0.1,0.1-0.3,0.2-0.4,0.4
		c-0.2,0.2-0.3,0.4,0,0.7c0.2,0.2,0.4,0.2,0.6,0c0.6-0.6,1.3-1.2,1.9-1.8c0.2-0.2,0.5-0.6,0.8-0.2c0.3,0.3,0.1,0.6-0.2,0.9
		c-0.5,0.5-1,1-1.5,1.5c-0.1,0.1-0.2,0.2-0.4,0.3c-0.2,0.2-0.4,0.4-0.1,0.7c0.3,0.3,0.5,0.1,0.8-0.1c0.4-0.4,0.8-0.8,1.3-1.2
		c0.2-0.2,0.4-0.4,0.7-0.1c0.2,0.3,0.2,0.5,0,0.8c-1.2,1.2-2.4,2.4-3.7,3.5C9.6,23.2,8.3,23.3,7,22.6z"/>
	<path d="M8.9,24C8.9,23.9,8.9,23.9,8.9,24L8.9,24C8.9,23.9,8.9,24,8.9,24z"/>
</g>
</svg>
