<svg xmlns="http://www.w3.org/2000/svg" width="93" height="18" viewBox="0 0 93 18">
  <path fill="#282828" fill-rule="evenodd" d="M104.996473,9.15044156 C106.610582,8.78472727 108.29806,8.78472727 110.058907,9.15044156 C111.893122,9.5892987 112.846914,10.2475844 113.213757,10.467013 C113.507231,10.6864416 113.653968,10.9058701 113.507231,11.1252987 C113.360494,11.4178701 112.773545,12.3687273 112.700176,12.4418701 C112.626808,12.515013 112.480071,12.8075844 111.96649,12.515013 C111.159436,12.003013 109.912169,11.491013 109.031746,11.3447273 C108.151323,11.1984416 106.537213,11.1252987 105.289947,11.5641558 C104.409524,11.9298701 103.602469,12.4418701 103.602469,13.1732987 C103.602469,13.8315844 103.822575,14.1972987 104.556261,14.6361558 C105.510053,15.2212987 108.077954,15.587013 110.572487,16.3915844 C112.993651,17.1961558 114.167549,18.4395844 114.167549,20.4144416 C114.167549,21.8041558 113.5806,23.1938701 111.746384,24.1447273 C109.545326,25.315013 106.904056,25.3881558 104.409524,24.7298701 C101.914991,24.1447273 100.887831,22.9012987 100.741093,22.755013 C100.594356,22.6087273 100.447619,22.3892987 100.667725,22.1698701 C100.741093,22.0723463 100.871527,21.9098066 101.012829,21.736431 L101.184653,21.5266464 C101.412824,21.2492454 101.621517,20.9995844 101.621517,20.9995844 C101.98836,20.707013 102.208466,20.9264416 102.208466,20.9264416 C102.208466,20.9264416 104.116049,22.8281558 107.344268,22.8281558 C110.499118,22.8281558 111.673016,21.5115844 111.673016,20.6338701 C111.673016,19.683013 111.012698,19.2441558 110.279012,18.9515844 C109.618695,18.659013 107.564374,18.147013 106.243739,17.7812987 C104.923104,17.4155844 103.822575,17.0498701 102.648677,16.2452987 C101.548148,15.4407273 101.181305,14.6361558 101.107937,13.6852987 C101.034568,12.8075844 101.181305,12.1492987 101.768254,11.2715844 C102.355203,10.467013 103.382363,9.73558442 104.996473,9.15044156 Z M126.273369,9.15044156 C127.887478,8.78472727 129.574956,8.78472727 131.335802,9.15044156 C133.170018,9.5892987 134.12381,10.2475844 134.490653,10.467013 C134.784127,10.6864416 134.930864,10.9058701 134.784127,11.1252987 C134.63739,11.4178701 134.050441,12.3687273 133.977072,12.4418701 C133.903704,12.515013 133.756966,12.8075844 133.243386,12.515013 C132.436332,12.003013 131.189065,11.491013 130.308642,11.3447273 C129.428219,11.1984416 127.814109,11.1252987 126.566843,11.5641558 C125.68642,11.9298701 124.879365,12.4418701 124.879365,13.1732987 C124.879365,13.8315844 125.099471,14.1972987 125.833157,14.6361558 C126.786949,15.2212987 129.35485,15.587013 131.849383,16.3915844 C134.270547,17.1961558 135.444444,18.4395844 135.444444,20.2681558 C135.444444,21.6578701 134.857496,23.0475844 133.02328,23.9984416 C130.822222,25.1687273 128.180952,25.1687273 125.68642,24.5835844 C123.72643,24.1238293 122.672318,23.2576835 122.239379,22.8366323 L122.136491,22.7334753 C122.077882,22.6729139 122.038952,22.6296252 122.017989,22.6087273 C121.871252,22.4624416 121.724515,22.243013 121.944621,22.0235844 C122.164727,21.731013 122.898413,20.8532987 122.898413,20.8532987 C123.265256,20.5607273 123.485362,20.7801558 123.485362,20.7801558 C123.605875,20.8971558 125.493827,22.6818701 128.621164,22.6818701 C131.776014,22.6818701 132.949912,21.3652987 132.949912,20.4875844 C132.949912,19.5367273 132.289594,19.0978701 131.555908,18.8052987 C130.895591,18.5127273 128.84127,18.0007273 127.520635,17.635013 C126.2,17.2692987 125.099471,16.9035844 123.925573,16.099013 C122.825044,15.2944416 122.458201,14.4898701 122.384832,13.539013 C122.311464,12.6612987 122.458201,12.003013 123.04515,11.1252987 C123.55873,10.3207273 124.659259,9.51615584 126.273369,9.15044156 Z M51.6574956,9.15044156 C52.4645503,9.15044156 53.1248677,9.29672727 53.7851852,9.51615584 C54.4455026,9.73558442 55.0324515,10.1012987 55.4726631,10.467013 C55.9862434,10.9058701 56.3530864,11.3447273 56.5731922,11.9298701 C56.7932981,12.4418701 56.9400353,13.1001558 56.9400353,13.7584416 C56.9400353,14.7824416 56.6465608,15.6601558 56.1329806,16.3915844 C55.5460317,17.0498701 54.8857143,17.635013 53.9319224,17.9275844 L53.9319224,17.9275844 L57.0867725,24.3641558 C57.1601411,24.6567273 57.0134039,24.9492987 56.7199295,24.9492987 L56.7199295,24.9492987 L54.6656085,24.9492987 C54.5188713,24.9492987 54.372134,24.803013 54.2987654,24.6567273 L54.2987654,24.6567273 L51.0705467,18.2932987 L45.5679012,18.2932987 L45.5679012,24.5104416 C45.5679012,24.7298701 45.421164,24.8761558 45.2010582,24.8761558 L45.2010582,24.8761558 L43.366843,24.8761558 C43.1467372,24.8761558 43,24.7298701 43,24.5104416 L43,24.5104416 L43,9.5892987 C43,9.36987013 43.1467372,9.22358442 43.366843,9.15044156 L43.366843,9.15044156 Z M90.9097002,9.22358442 C91.129806,9.22358442 91.2765432,9.44301299 91.2765432,9.5892987 L91.2765432,9.5892987 L91.2765432,24.5835844 C91.2765432,24.803013 91.129806,24.9492987 90.9097002,24.9492987 L90.9097002,24.9492987 L89.075485,24.9492987 C88.8553792,24.9492987 88.708642,24.803013 88.708642,24.5835844 L88.708642,24.5835844 L88.708642,9.66244156 C88.708642,9.36987013 88.8553792,9.22358442 89.075485,9.22358442 L89.075485,9.22358442 Z M79.0239859,9.15044156 C79.3174603,9.15044156 79.4641975,9.36987013 79.4641975,9.5892987 L79.4641975,9.5892987 L79.4641975,11.1252987 C79.4641975,11.3447273 79.2440917,11.491013 79.0239859,11.491013 L79.0239859,11.491013 L68.9724868,11.491013 L68.9724868,15.5138701 L76.4560847,15.5138701 C76.6761905,15.5138701 76.8229277,15.6601558 76.8229277,15.8795844 L76.8229277,15.8795844 L76.8229277,17.4155844 C76.8229277,17.635013 76.6761905,17.7812987 76.4560847,17.7812987 L76.4560847,17.7812987 L68.9724868,17.7812987 L68.9724868,22.6087273 L79.3174603,22.6087273 C79.6109347,22.6087273 79.757672,22.755013 79.757672,22.9744416 L79.757672,22.9744416 L79.757672,24.5104416 C79.757672,24.7298701 79.5375661,24.8761558 79.3174603,24.8761558 L79.3174603,24.8761558 L66.69806,24.8761558 C66.4779541,24.8761558 66.3312169,24.7298701 66.3312169,24.5104416 L66.3312169,24.5104416 L66.3312169,9.5892987 C66.3312169,9.29672727 66.4779541,9.15044156 66.69806,9.15044156 L66.69806,9.15044156 Z M51.8042328,11.5641558 L45.6412698,11.5641558 L45.6412698,15.9527273 L51.8042328,15.9527273 C52.5379189,15.9527273 53.1248677,15.7332987 53.5650794,15.3675844 C54.005291,14.9287273 54.2253968,14.4167273 54.2253968,13.7584416 C54.2253968,13.1001558 54.005291,12.5881558 53.5650794,12.1492987 C53.1248677,11.7835844 52.5379189,11.5641558 51.8042328,11.5641558 L51.8042328,11.5641558 Z" transform="translate(-43 -8)"/>
</svg>
