<svg xmlns="http://www.w3.org/2000/svg" width="15" height="17" viewBox="0 0 15 17">
    <path fill-rule="evenodd" d="M167.994127,84.030303 C168.769461,84.030303 169.433461,84.5856364 169.570794,85.348303 L169.570794,85.348303 L170.657461,91.3636364 L156.000127,91.3636364 L157.094127,85.346303 C157.232127,84.584303 157.896794,84.030303 158.671461,84.030303 L158.671461,84.030303 Z M167.994127,85.3636364 L158.671461,85.3636364 C158.540794,85.3636364 158.428794,85.4569697 158.405461,85.5849697 L158.405461,85.5849697 L157.597461,90.030303 L169.062127,90.030303 L168.258794,85.5849697 C168.236127,85.4569697 168.124127,85.3636364 167.994127,85.3636364 L167.994127,85.3636364 Z M163.328794,75.3636364 C165.537461,75.3636364 167.328794,77.1549697 167.328794,79.3636364 C167.328794,81.572303 165.537461,83.3636364 163.328794,83.3636364 C161.120127,83.3636364 159.328794,81.572303 159.328794,79.3636364 C159.328794,77.1549697 161.120127,75.3636364 163.328794,75.3636364 Z M163.328794,76.6969697 C161.858794,76.6969697 160.662127,77.8929697 160.662127,79.3636364 C160.662127,80.834303 161.858794,82.030303 163.328794,82.030303 C164.798794,82.030303 165.995461,80.834303 165.995461,79.3636364 C165.995461,77.8929697 164.798794,76.6969697 163.328794,76.6969697 Z" transform="translate(-156 -75)"/>
</svg>
