<svg height="16" viewBox="0 0 18 16" width="18" xmlns="http://www.w3.org/2000/svg"><path d="m12.5016667 0c-1.4073334 0-2.6146667.64457656-3.50000003 1.52662869-.88533334-.88205213-2.09266667-1.52662869-3.5-1.52662869-2.84866667 0-5.16666667 2.31289236-5.16666667 5.15528209 0 5.84775291 7.67933333 10.28262591 8.00666667 10.46888121l.66.3758367.66-.3758367c.32733333-.1862553 8.00666663-4.6211283 8.00666663-10.46888121 0-2.84238973-2.318-5.15528209-5.1666666-5.15528209m0 1.33039538c2.12 0 3.8333333 1.70955806 3.8333333 3.82488671 0 5.14197811-7.33333333 9.31276761-7.33333333 9.31276761s-7.33333334-4.1707895-7.33333334-9.31276761c0-2.11532865 1.71333334-3.82488671 3.83333334-3.82488671 1.56666666 0 2.90666666 1.15744397 3.5 2.49449133.59333333-1.33704736 1.93333333-2.49449133 3.50000003-2.49449133" fill-rule="evenodd"/></svg>