<svg xmlns="http://www.w3.org/2000/svg" width="15" height="17" viewBox="0 0 15 17">
    <path fill-rule="evenodd" d="M229.794783,86.8251383 C229.794783,87.2981818 229.678841,87.7387615 229.446957,88.1468775 C229.215072,88.5549934 228.89971,88.8796311 228.50087,89.1207905 C228.092754,89.3619499 227.656812,89.4825296 227.193043,89.4825296 C226.72,89.4825296 226.284058,89.3665876 225.885217,89.1347036 C225.486377,88.9028195 225.171014,88.5781818 224.93913,88.1607905 C224.707246,87.7619499 224.591304,87.3167325 224.591304,86.8251383 L223.297391,86.8251383 C223.297391,87.5393412 223.473623,88.2071673 223.826087,88.8286166 C224.178551,89.4500659 224.651594,89.9370224 225.245217,90.2894862 C225.848116,90.6419499 226.497391,90.8181818 227.193043,90.8181818 C227.888696,90.8181818 228.537971,90.6419499 229.14087,90.2894862 C229.743768,89.9370224 230.221449,89.4500659 230.573913,88.8286166 C230.926377,88.2071673 231.102609,87.5393412 231.102609,86.8251383 L229.794783,86.8251383 Z M220.695652,84.8633992 C220.695652,85.2436891 220.811594,85.549776 221.043478,85.7816601 C221.275362,86.0135441 221.590725,86.1387615 221.989565,86.1573123 L232.396522,86.1573123 C232.786087,86.1573123 233.096812,86.0413702 233.328696,85.8094862 C233.56058,85.5776021 233.685797,85.2529644 233.704348,84.8355731 L234.4,74.8181818 L220,74.8181818 L220.695652,84.8633992 Z M221.989565,84.7799209 L221.391304,76.153834 L232.994783,76.153834 L232.396522,84.7799209 L232.396522,84.8216601 L222.003478,84.8216601 L221.989565,84.7799209 Z" transform="matrix(1 0 0 -1 -220 91.636)"/>
</svg>
