<?xml version="1.0" encoding="UTF-8"?>
<svg width="12px" height="17px" viewBox="0 0 12 17" version="1.1" xmlns="http://www.w3.org/2000/svg" xmlns:xlink="http://www.w3.org/1999/xlink">
    <title>Fill 1</title>
    <g id="Page-1" stroke="none" stroke-width="1" fill="none" fill-rule="evenodd">
        <g id="Artboard" transform="translate(-50.000000, -75.000000)" fill="#000000">
            <path d="M56.4165984,82.3726454 C56.1196348,82.3726454 55.8420238,82.2985713 55.5837656,82.1504232 C55.32484,82.0016077 55.1219705,81.7980708 54.9738223,81.5398125 C54.8250068,81.2815543 54.7509328,81.0006067 54.7509328,80.6969697 C54.7509328,80.4000061 54.8250068,80.1197258 54.9738223,79.8547942 C55.1279765,79.6032093 55.3315133,79.4023417 55.5837656,79.2541936 C55.8353505,79.1053781 56.1129614,79.031304 56.4165984,79.031304 C56.713562,79.031304 56.9945097,79.1053781 57.2594413,79.2541936 C57.5170322,79.3963357 57.7205691,79.5965359 57.8693845,79.8547942 C58.0175327,80.1130524 58.0922741,80.3940001 58.0922741,80.6969697 C58.0922741,80.9946007 58.0175327,81.2748809 57.8693845,81.5398125 C57.7205691,81.7980708 57.5170322,82.0016077 57.2594413,82.1504232 C57.001183,82.2985713 56.7202354,82.3726454 56.4165984,82.3726454 M56.4039191,75.3636364 C55.4302788,75.3636364 54.5200352,75.6012073 53.6738557,76.0763491 C52.8276762,76.5514909 52.1550035,77.2008069 51.656505,78.024297 C51.1580065,78.8471198 50.9090909,79.7340067 50.9090909,80.6849577 C50.9090909,81.4497224 51.025207,82.0756817 51.2567719,82.5628356 L55.1867019,90.6142203 C55.302818,90.8577972 55.4709861,91.043316 55.6912064,91.1707768 C55.9114266,91.2982376 56.1489975,91.3623017 56.4039191,91.3623017 C56.4246064,91.362969 56.4446264,91.3636364 56.4653138,91.3636364 C56.7082234,91.3636364 56.9311129,91.298905 57.1339825,91.1707768 C57.3542027,91.0319714 57.5223709,90.8457852 57.638487,90.6142203 L61.5510662,82.5628356 C61.7953105,82.0529924 61.9160979,81.4270331 61.9160979,80.6849577 C61.9160979,79.71065 61.6731883,78.8184245 61.1860345,78.0069463 C60.687536,77.1834562 60.0155307,76.5341402 59.1686838,76.0589984 C58.3225043,75.5952013 57.4015834,75.3636364 56.4039191,75.3636364 M56.4165984,83.7073134 C56.955137,83.7073134 57.4623108,83.5725119 57.9247733,83.306913 C58.3885704,83.0399794 58.7596081,82.669609 59.0338824,82.1924652 C59.2941426,81.7273334 59.4269421,81.2241636 59.4269421,80.6969697 C59.4269421,80.1590985 59.292808,79.6519247 59.0265417,79.1887949 C58.7549368,78.7169897 58.3772257,78.3452847 57.9120939,78.0903631 C57.4469621,77.8287682 56.9437923,77.696636 56.4165984,77.696636 C55.8727212,77.696636 55.3642127,77.8341068 54.9057542,78.1043771 C54.4659811,78.36397 54.1062881,78.7169897 53.8366852,79.1554282 L53.8226712,79.1781175 L53.8099918,79.2014742 C53.5483969,79.666606 53.4162647,80.1704432 53.4162647,80.6969697 C53.4162647,81.2355082 53.5510662,81.7433494 53.8166651,82.2051445 C54.0835988,82.669609 54.4546365,83.0399794 54.9184336,83.306913 C55.3802287,83.5725119 55.8840659,83.7073134 56.4165984,83.7073134 M56.4039191,76.6983044 C57.1806958,76.6983044 57.8753905,76.8718112 58.5160312,77.2228289 C59.1633452,77.5871933 59.6638457,78.0696757 60.042224,78.693633 C60.4059211,79.2995723 60.5814299,79.9508903 60.5814299,80.6849577 C60.5814299,81.2228289 60.5026845,81.6612673 60.3511997,81.9795856 L56.4446264,90.0176237 C56.4426244,90.0216277 56.4406224,90.0249644 56.4392878,90.0276337 L56.4326144,90.0276337 L56.4039191,90.0276337 C56.3959111,90.0276337 56.3899051,90.0269664 56.3845664,90.026299 L52.4613098,81.9889283 C52.3625444,81.7800528 52.2437589,81.3843237 52.2437589,80.6849577 C52.2437589,79.976249 52.4252738,79.3316043 52.7983135,78.715655 C53.1786938,78.0870264 53.6791943,77.6038766 54.3271757,77.2401796 C54.977159,76.8751479 55.6558377,76.6983044 56.4039191,76.6983044" id="Fill-1"></path>
        </g>
    </g>
</svg>