<?xml version="1.0" encoding="UTF-8"?>
<svg width="25px" height="24px" viewBox="0 0 25 24" version="1.1" xmlns="http://www.w3.org/2000/svg" xmlns:xlink="http://www.w3.org/1999/xlink">
    <title>reiss/01-atom/icon/24px/account@1.5x</title>
    <g id="ðŸ“-Spec-Designs" stroke="none" stroke-width="1" fill="none" fill-rule="evenodd">
        <g id="Fill-1" transform="translate(-9.500000, -10.000400)" fill="#000000">
            <path d="M31.9994741,31.9994741 L11.9984223,31.9994741 L11.9984223,20.8019984 L18.4985538,20.8019984 L18.4985538,27.0013148 L21.9989482,25.4993426 L25.4993426,27.0013148 L25.4993426,20.8019984 L31.9994741,20.8019984 L31.9994741,31.9994741 Z M15.3010781,12.0005259 L18.4985538,12.0005259 L18.4985538,18.8014725 L12.2003681,18.8014725 L15.3010781,12.0005259 Z M20.4990797,20.8019984 L23.4988167,20.8019984 L23.4988167,23.9721273 L22.7899027,23.6607941 L21.9989482,23.3200105 L21.2079937,23.6607941 L20.4990797,23.9721273 L20.4990797,20.8019984 Z M20.4990797,18.8014725 L23.4988167,18.8014725 L23.4988167,12.0026295 L20.4990797,12.0026295 L20.4990797,18.8014725 Z M28.7094399,12.0005259 L31.7996319,18.8014725 L25.4993426,18.8014725 L25.4993426,12.0005259 L28.7094399,12.0005259 Z M29.9989482,10 L14.0094662,10 L10,18.8014725 L10,34 L33.9978964,34 L33.9978964,18.8014725 L29.9989482,10 Z"></path>
        </g>
    </g>
</svg>